<svg width="202" height="83" viewBox="0 0 202 83" fill="none" xmlns="http://www.w3.org/2000/svg">
<path d="M125.085 2.01815L125.082 2.01966C123.644 2.66279 121.945 4.13929 120.511 5.9318C119.074 7.72625 118.035 9.67176 117.763 11.1514C117.356 13.4738 117.439 15.4667 118.016 17.2897C118.593 19.1151 119.686 20.8394 121.402 22.5901L121.402 22.5901L121.409 22.598C123.133 24.3965 124.78 25.5283 126.518 26.1143C128.249 26.6982 130.156 26.769 132.449 26.3059L132.449 26.3059L132.462 26.3033C134.114 25.9932 136.26 24.5786 138.129 22.6286C139.993 20.6836 141.364 18.4327 141.666 16.677L141.668 16.6679L141.67 16.6588C142.474 12.4606 141.531 8.85363 138.916 5.74689L138.916 5.7469L138.912 5.74196C135.101 1.15371 129.866 -0.140707 125.085 2.01815Z" fill="#44ED1A" stroke="black" stroke-width="2"/>
<path d="M8.27612 79.4963C8.51134 78.911 8.73012 78.2265 8.87487 77.6239C9.20452 76.1656 9.93126 74.0599 10.5885 72.6883L10.5916 72.6819L10.5948 72.6754L11.6891 70.4734L11.9649 69.9185H12.5846H22.668C23.1709 69.9185 23.6514 69.9178 24.1104 69.9171C26.1819 69.9142 27.8172 69.9119 29.1075 69.9758C30.6686 70.0531 31.8886 70.2302 32.8527 70.7203C33.8789 71.2419 34.496 72.0522 35.0005 73.0993C35.3869 73.9012 35.7461 74.9304 36.1776 76.1671C36.2829 76.4689 36.3926 76.7832 36.508 77.1095L36.5095 77.1138L37.8435 80.9412L41.6801 81.0102L41.688 81.0104L41.6958 81.0106C42.8554 81.0497 43.9209 81.0697 44.7098 81.0711C44.6258 80.8456 44.5311 80.5919 44.4262 80.3112C43.9406 79.0128 43.2375 77.1432 42.3681 74.8397C40.6293 70.2328 38.2261 63.8929 35.5688 56.9208L35.568 56.9186L26.2609 32.3233L22.8424 32.1175L22.8353 32.1171L22.8281 32.1165C21.7875 32.039 20.8112 32.0594 20.0835 32.1344C19.7228 32.1716 19.4473 32.2197 19.2652 32.2671C19.0513 32.7037 18.677 33.5681 18.1611 34.8299C17.5405 36.3478 16.7455 38.3631 15.8378 40.7099C14.0228 45.4022 11.7627 51.4045 9.55561 57.3704C7.34848 63.3364 5.19595 69.2619 3.59585 73.8008C2.7955 76.0712 2.13517 77.9895 1.6757 79.3909C1.44562 80.0926 1.26851 80.6568 1.14987 81.0675C1.13998 81.1017 1.13058 81.1346 1.12165 81.1661C1.18641 81.1794 1.2595 81.1927 1.34142 81.2055C1.97051 81.3038 2.86632 81.3357 3.8283 81.2963C4.78505 81.2572 5.75471 81.1497 6.52398 80.9901C6.91023 80.91 7.22056 80.8219 7.44393 80.7341C7.61417 80.6671 7.68012 80.621 7.69055 80.6152L7.69345 80.6117L7.71991 80.5841C7.74221 80.5608 7.81818 80.4625 7.93374 80.2464C8.04132 80.0452 8.15825 79.7895 8.27612 79.4963ZM0.719464 81.0415C0.718842 81.0416 0.724378 81.0452 0.737938 81.0521C0.726866 81.0448 0.720086 81.0414 0.719464 81.0415ZM21.8688 42.7256C21.8688 42.7257 21.8707 42.7289 21.8744 42.7343C21.8707 42.7282 21.8688 42.7254 21.8688 42.7256ZM30.8824 63.4245L30.876 63.4357L30.8693 63.4467C30.7389 63.6605 30.5653 63.7874 30.4568 63.8552C30.339 63.9289 30.2186 63.9814 30.116 64.0196C29.9112 64.0961 29.6752 64.1533 29.4382 64.1989C28.958 64.2913 28.3359 64.3616 27.6408 64.415C26.2425 64.5223 24.4423 64.5683 22.6524 64.5581C20.8625 64.5478 19.0578 64.4809 17.6504 64.358C16.9504 64.2969 16.3239 64.2198 15.8385 64.123C15.5985 64.0751 15.3624 64.0166 15.1579 63.9408C15.0555 63.9029 14.9383 63.8524 14.8238 63.7838C14.7184 63.7206 14.5542 63.6062 14.4219 63.4163L14.4002 63.3852L14.3809 63.3525C14.2385 63.1111 14.2156 62.8648 14.2085 62.7526C14.1995 62.6104 14.2069 62.4657 14.2193 62.3341C14.2444 62.0688 14.3009 61.7507 14.3755 61.4054C14.5259 60.7088 14.7728 59.797 15.0814 58.7604C15.7002 56.6816 16.5884 54.0305 17.5155 51.4458C18.4424 48.862 19.4146 46.3262 20.2034 44.48C20.5953 43.5628 20.9535 42.788 21.2458 42.2585C21.3848 42.0066 21.5422 41.7481 21.7095 41.557C21.7795 41.4771 21.941 41.3015 22.1879 41.1953C22.3272 41.1354 22.5446 41.0759 22.8041 41.1218C23.0662 41.168 23.2685 41.3035 23.406 41.4545C23.506 41.5633 23.5762 41.6821 23.6085 41.7376C23.6554 41.818 23.7034 41.9097 23.7509 42.0052C23.8466 42.1974 23.9606 42.4467 24.0885 42.7389C24.3453 43.3258 24.6748 44.1249 25.0526 45.072C25.8087 46.9675 26.769 49.4825 27.7477 52.1374C28.769 54.8426 29.6357 57.3697 30.2195 59.2797C30.5108 60.2327 30.7362 61.0469 30.8748 61.659C30.9434 61.9621 30.9961 62.2389 31.0221 62.4687C31.035 62.582 31.0444 62.7098 31.0398 62.8367C31.0367 62.9243 31.0254 63.1758 30.8824 63.4245Z" fill="#44ED1A" stroke="black" stroke-width="2"/>
<path d="M57.469 42.1619L57.9648 32.0376H54.9503H51.8076V56.7277V81.3362H54.8722H57.8258L57.3901 67.8516L57.39 67.8489C57.1549 59.9155 57.2331 48.312 57.4684 42.1725L57.469 42.1619Z" fill="#44ED1A" stroke="black" stroke-width="2"/>
<path d="M127.628 56.6462V81.1731H130.536H133.445V56.6462V32.1192H130.536H127.628V56.6462Z" fill="#44ED1A" stroke="black" stroke-width="2"/>
<path d="M118.593 78.7478V76.3442L115.548 76.6439L115.538 76.6449L115.528 76.6456C113.953 76.7689 112.745 76.78 111.804 76.6004C110.808 76.4103 110.075 75.9994 109.513 75.2976C109.247 74.97 109.047 74.5487 108.889 74.1186C108.725 73.6735 108.583 73.1539 108.459 72.5863C108.212 71.4504 108.027 70.0572 107.907 68.5509C107.668 65.5401 107.687 61.9872 108.048 58.9758C108.048 58.9752 108.048 58.9746 108.048 58.9739L108.595 54.2477L108.71 53.2464L109.711 53.3702L114.314 53.94L117.811 54.3112V51.3451V48.2673H114.122H109.432H108.432V47.2673V41.1506V36.034H107.165C106.481 36.034 105.728 35.9677 105.065 35.8704C104.423 35.7761 103.783 35.6411 103.361 35.4759C103.281 35.4446 103.159 35.4357 103.03 35.4736C102.957 35.495 102.909 35.5227 102.881 35.5434C102.869 35.5987 102.845 35.7132 102.822 35.9108C102.787 36.221 102.766 36.6323 102.762 37.1232C102.752 38.0998 102.808 39.326 102.923 40.5608C103.232 43.3868 103.286 45.4445 102.852 46.8148C102.621 47.5451 102.229 48.1564 101.606 48.5632C101.001 48.9588 100.295 49.0829 99.5828 49.0829C99.1893 49.0829 98.9995 49.1109 98.9041 49.1416C98.8972 49.1438 98.8916 49.1459 98.8871 49.1476C98.8601 49.1979 98.8032 49.3459 98.7629 49.7073C98.7219 50.0765 98.7068 50.5746 98.7068 51.2635C98.7068 51.9957 98.7221 52.5152 98.7671 52.8991C98.8129 53.2893 98.8798 53.4385 98.9136 53.4919C98.9141 53.4928 98.9147 53.4938 98.9154 53.495C98.9338 53.5265 99.0063 53.651 100.015 53.7776L102.121 54.0218L102.977 54.121L103.005 54.9825L103.396 66.969C103.396 66.9693 103.396 66.9697 103.396 66.9701C103.513 70.3351 103.63 72.9184 103.814 74.924C103.999 76.9413 104.247 78.3 104.596 79.2487C104.931 80.1601 105.344 80.6525 105.872 80.9916C106.443 81.3587 107.23 81.6008 108.437 81.8415C109.806 82.0631 112.891 82.0688 115.156 81.7536L115.169 81.7519L115.181 81.7505L118.593 81.3621V78.7478Z" fill="#44ED1A" stroke="black" stroke-width="2"/>
<path d="M75.7699 48.6154L75.7657 48.6169C73.0691 49.5795 70.3899 52.0035 68.3713 55.0841C66.3572 58.1576 65.0956 61.7417 65.0956 64.8834C65.0956 72.0571 68.7984 77.5018 73.9523 80.1523C79.1082 82.8038 85.7907 82.6958 91.8276 78.5744L91.8344 78.5698L91.8412 78.5653L94.0915 77.0824L93.2042 75.173L92.3948 73.4311L89.7335 74.8195C84.9554 77.3952 78.623 77.5424 74.659 75.0249L74.6589 75.0249L74.6488 75.0184C73.3251 74.1552 72.2352 73.1505 71.5814 72.1811C71.2569 71.7 70.9988 71.1672 70.919 70.6209C70.8348 70.0451 70.9505 69.4164 71.4247 68.9217C71.5415 68.7998 71.6634 68.7323 71.7143 68.7054C71.779 68.6711 71.8403 68.6457 71.8875 68.6277C71.9823 68.5916 72.0856 68.5608 72.1832 68.5345C72.3821 68.4809 72.639 68.4244 72.9355 68.3661C73.5331 68.2485 74.3558 68.1109 75.3386 67.9622C77.3076 67.6643 79.958 67.3162 82.8198 66.989L82.8198 66.9889L82.8325 66.9876C85.6226 66.7046 88.2928 66.3207 90.3257 65.9488C91.3439 65.7625 92.1892 65.5816 92.8042 65.4208C93.1133 65.3401 93.348 65.2686 93.5109 65.209C93.5798 65.1839 93.6229 65.1653 93.6467 65.1546C93.7888 65.0062 93.9684 64.6933 94.1019 64.132C94.2427 63.5402 94.3064 62.7785 94.2745 61.9023C94.2106 60.1493 93.7688 58.0717 92.961 56.2329L92.9581 56.2261L92.9552 56.2193C91.3446 52.4001 87.8965 49.2812 84.2988 48.2285C82.4586 47.7087 81.2537 47.4989 80.0772 47.5527C78.8943 47.6067 77.6618 47.9306 75.7699 48.6154ZM86.1071 63.2331L86.0988 63.2356L86.0903 63.2379C84.5048 63.6732 81.3913 64.0656 78.577 64.2899C77.1559 64.4031 75.7788 64.4761 74.6695 64.4892C74.116 64.4957 73.6159 64.4876 73.204 64.46C72.8344 64.4352 72.4156 64.3892 72.1003 64.2671C71.2922 63.9588 70.8494 63.2874 70.6886 62.554C70.5359 61.8574 70.6215 61.0742 70.8309 60.3153C71.2527 58.7867 72.265 57.0363 73.6871 55.5511C75.3707 53.7515 77.431 52.7799 79.5939 52.7208C81.7523 52.6619 83.9047 53.5141 85.7809 55.16C87.342 56.5249 88.3279 58.1438 88.4906 59.659C88.5735 60.4303 88.4427 61.2037 88.0199 61.8645C87.5934 62.531 86.9273 62.9925 86.1071 63.2331Z" fill="#44ED1A" stroke="black" stroke-width="2"/>
<path d="M182.075 48.6154L182.071 48.6169C179.374 49.5795 176.695 52.0035 174.676 55.0841C172.662 58.1576 171.401 61.7417 171.401 64.8834C171.401 72.0571 175.103 77.5018 180.257 80.1523C185.413 82.8038 192.096 82.6958 198.133 78.5744L198.139 78.5698L198.146 78.5653L200.396 77.0824L199.509 75.173L198.7 73.4311L196.038 74.8195C191.26 77.3952 184.928 77.5424 180.964 75.0249L180.964 75.0249L180.954 75.0184C179.63 74.1552 178.54 73.1505 177.886 72.1811C177.562 71.7 177.304 71.1672 177.224 70.6209C177.14 70.0451 177.255 69.4164 177.73 68.9217C177.846 68.7998 177.968 68.7323 178.019 68.7054C178.084 68.6711 178.145 68.6457 178.192 68.6277C178.287 68.5916 178.39 68.5608 178.488 68.5345C178.687 68.4809 178.944 68.4244 179.24 68.3661C179.838 68.2485 180.661 68.1109 181.644 67.9622C183.612 67.6643 186.263 67.3162 189.125 66.989L189.125 66.9889L189.137 66.9876C191.928 66.7046 194.598 66.3207 196.631 65.9488C197.649 65.7625 198.494 65.5816 199.109 65.4208C199.418 65.3401 199.653 65.2686 199.816 65.209C199.885 65.1839 199.928 65.1653 199.952 65.1546C200.094 65.0062 200.273 64.6933 200.407 64.132C200.548 63.5402 200.611 62.7785 200.579 61.9023C200.515 60.1493 200.074 58.0717 199.266 56.2329L199.263 56.2261L199.26 56.2193C197.65 52.4001 194.201 49.2812 190.604 48.2285C188.764 47.7087 187.559 47.4989 186.382 47.5527C185.199 47.6067 183.967 47.9306 182.075 48.6154ZM192.412 63.2331L192.404 63.2356L192.395 63.2379C190.81 63.6732 187.696 64.0656 184.882 64.2899C183.461 64.4031 182.084 64.4761 180.974 64.4892C180.421 64.4957 179.921 64.4876 179.509 64.46C179.139 64.4352 178.721 64.3892 178.405 64.2671C177.597 63.9588 177.154 63.2874 176.994 62.554C176.841 61.8574 176.926 61.0742 177.136 60.3153C177.558 58.7867 178.57 57.0363 179.992 55.5511C181.676 53.7515 183.736 52.7799 185.899 52.7208C188.057 52.6619 190.21 53.5141 192.086 55.16C193.647 56.5249 194.633 58.1438 194.796 59.659C194.878 60.4303 194.748 61.2037 194.325 61.8645C193.898 62.531 193.232 62.9925 192.412 63.2331Z" fill="#44ED1A" stroke="black" stroke-width="2"/>
<path d="M142.856 52.4928L142.564 54.4228H149.296C151.462 54.4228 153.438 54.4844 154.881 54.5778C155.599 54.6243 156.203 54.6799 156.639 54.7428C156.85 54.7733 157.058 54.8106 157.23 54.8599C157.308 54.8824 157.437 54.9234 157.566 54.9969C157.63 55.0332 157.743 55.1044 157.85 55.225C157.961 55.3506 158.112 55.5847 158.112 55.9122C158.112 56.1211 158.047 56.2824 158.029 56.328L158.029 56.3284C158 56.3997 157.968 56.4619 157.943 56.5074C157.891 56.6001 157.828 56.698 157.763 56.7918C157.632 56.9833 157.449 57.2276 157.228 57.5111C156.782 58.0818 156.145 58.8579 155.365 59.7798C153.803 61.6245 151.647 64.0787 149.257 66.6944C145.292 71.1598 143.199 73.5658 142.083 75.2192C141.537 76.0285 141.26 76.6094 141.109 77.1223C140.959 77.6327 140.916 78.1349 140.916 78.8293V81.0854L153.12 81.01L165.514 80.9335L165.824 79.3688C165.847 79.2519 165.87 79.1394 165.891 79.0311C166.1 77.9839 166.231 77.327 166.232 76.8504C166.233 76.6123 166.198 76.5171 166.183 76.4872C166.183 76.4868 166.182 76.4863 166.182 76.4858C166.177 76.4746 166.161 76.4413 166.062 76.3889C165.77 76.234 165.141 76.1032 163.793 76.0437C162.668 75.9939 161.187 75.9948 159.223 75.9959C158.922 75.996 158.609 75.9962 158.285 75.9962C155.804 75.9962 153.531 75.9141 151.869 75.7895C151.042 75.7275 150.345 75.6535 149.843 75.5697C149.599 75.5289 149.36 75.4794 149.165 75.4144C149.074 75.3842 148.932 75.3316 148.794 75.2411C148.715 75.189 148.296 74.9077 148.296 74.3438C148.296 74.0964 148.372 73.8866 148.424 73.7631C148.483 73.6226 148.558 73.4856 148.635 73.36C148.789 73.1082 148.996 72.827 149.228 72.5371C149.694 71.9534 150.323 71.2562 150.997 70.5527L151.008 70.5418L151.018 70.5311C152.317 69.2558 156.204 65.04 159.558 61.1328L159.56 61.1315C162.353 57.8882 163.83 56.0852 164.625 54.7405C165.361 53.4954 165.492 52.6842 165.492 51.345V49.0828H158.363C153.895 49.0828 148.609 48.8382 146.592 48.5857L146.581 48.5843L146.569 48.5826C145.203 48.379 144.395 48.3413 143.93 48.4096C143.799 48.4289 143.724 48.453 143.686 48.4685C143.525 49.1545 143.156 50.9266 142.856 52.4928Z" fill="#44ED1A" stroke="black" stroke-width="2"/>
</svg>
