<svg width="27" height="28" viewBox="0 0 27 28" fill="none" xmlns="http://www.w3.org/2000/svg">
<path d="M9.08542 2.01815L9.08204 2.01966C7.64379 2.66279 5.94538 4.13929 4.51057 5.9318C3.0742 7.72625 2.03455 9.67176 1.76344 11.1514C1.3558 13.4738 1.43944 15.4667 2.01593 17.2897C2.59318 19.1151 3.68649 20.8394 5.4017 22.5901L5.40175 22.5901L5.40935 22.598C7.13312 24.3965 8.78004 25.5283 10.5176 26.1143C12.249 26.6982 14.1558 26.769 16.4488 26.3059L16.4487 26.3059L16.4621 26.3033C18.1137 25.9932 20.2602 24.5786 22.1291 22.6286C23.9933 20.6836 25.3635 18.4327 25.6664 16.677L25.668 16.6679L25.6698 16.6588C26.4745 12.4606 25.5309 8.85363 22.9165 5.74689L22.9164 5.7469L22.9123 5.74196C19.1012 1.15371 13.8658 -0.140707 9.08542 2.01815Z" fill="#44ED1A" stroke="black" stroke-width="2"/>
</svg>
