<svg width="202" height="83" viewBox="0 0 202 83" fill="none" xmlns="http://www.w3.org/2000/svg">
<g clip-path="url(#clip0_151_10)">
<path d="M8.27612 79.4963C8.51134 78.911 8.73012 78.2265 8.87487 77.6239C9.20452 76.1656 9.93126 74.0599 10.5885 72.6883L10.5916 72.6819L10.5948 72.6754L11.6891 70.4734L11.9649 69.9185H12.5846H22.668C23.1709 69.9185 23.6514 69.9178 24.1104 69.9171C26.1819 69.9142 27.8172 69.9119 29.1075 69.9758C30.6686 70.0531 31.8886 70.2302 32.8527 70.7203C33.8789 71.2419 34.496 72.0522 35.0005 73.0993C35.3869 73.9012 35.7461 74.9304 36.1776 76.1671C36.2829 76.4689 36.3926 76.7832 36.508 77.1095L36.5095 77.1138L37.8435 80.9412L41.6801 81.0102L41.688 81.0104L41.6958 81.0106C42.8554 81.0497 43.9209 81.0697 44.7098 81.0711C44.6258 80.8456 44.5311 80.5919 44.4262 80.3112C43.9406 79.0128 43.2375 77.1432 42.3681 74.8397C40.6293 70.2328 38.2261 63.8929 35.5688 56.9208L35.568 56.9186L26.2609 32.3233L22.8424 32.1175L22.8353 32.1171L22.8281 32.1165C21.7875 32.039 20.8112 32.0594 20.0835 32.1344C19.7228 32.1716 19.4473 32.2197 19.2652 32.2671C19.0513 32.7037 18.677 33.5681 18.1611 34.8299C17.5405 36.3478 16.7455 38.3631 15.8378 40.7099C14.0228 45.4022 11.7627 51.4045 9.55561 57.3704C7.34848 63.3364 5.19595 69.2619 3.59585 73.8008C2.7955 76.0712 2.13517 77.9895 1.6757 79.3909C1.44562 80.0926 1.26851 80.6568 1.14987 81.0675C1.13998 81.1017 1.13058 81.1346 1.12165 81.1661C1.18641 81.1794 1.2595 81.1927 1.34142 81.2055C1.97051 81.3038 2.86632 81.3357 3.8283 81.2963C4.78505 81.2572 5.75471 81.1497 6.52398 80.9901C6.91023 80.91 7.22056 80.8219 7.44393 80.7341C7.61417 80.6671 7.68012 80.621 7.69055 80.6152L7.69345 80.6117L7.71991 80.5841C7.74221 80.5608 7.81818 80.4625 7.93374 80.2464C8.04132 80.0452 8.15825 79.7895 8.27612 79.4963ZM0.719468 81.0415C0.718846 81.0416 0.724382 81.0452 0.737942 81.0521C0.72687 81.0448 0.72009 81.0414 0.719468 81.0415ZM30.8824 63.4245L30.876 63.4357L30.8693 63.4467C30.7389 63.6605 30.5653 63.7874 30.4568 63.8552C30.339 63.9289 30.2186 63.9814 30.116 64.0196C29.9112 64.0961 29.6752 64.1533 29.4382 64.1989C28.958 64.2913 28.3359 64.3616 27.6408 64.415C26.2425 64.5223 24.4423 64.5683 22.6524 64.5581C20.8625 64.5478 19.0578 64.4809 17.6504 64.358C16.9504 64.2969 16.3239 64.2198 15.8385 64.123C15.5985 64.0751 15.3624 64.0166 15.1579 63.9408C15.0555 63.9029 14.9383 63.8524 14.8238 63.7838C14.7184 63.7206 14.5542 63.6062 14.4219 63.4163L14.4002 63.3852L14.3809 63.3525C14.2385 63.1111 14.2156 62.8648 14.2085 62.7526C14.1995 62.6104 14.2069 62.4657 14.2193 62.3341C14.2444 62.0688 14.3009 61.7507 14.3755 61.4054C14.5259 60.7088 14.7728 59.797 15.0814 58.7604C15.7002 56.6816 16.5884 54.0305 17.5155 51.4458C18.4424 48.862 19.4146 46.3262 20.2034 44.48C20.5953 43.5628 20.9535 42.788 21.2458 42.2585C21.3848 42.0066 21.5422 41.7481 21.7095 41.557C21.7795 41.4771 21.941 41.3015 22.1879 41.1953C22.3272 41.1354 22.5446 41.0759 22.8041 41.1218C23.0662 41.168 23.2685 41.3035 23.406 41.4545C23.506 41.5633 23.5762 41.6821 23.6085 41.7376C23.6554 41.818 23.7034 41.9097 23.7509 42.0052C23.8466 42.1974 23.9606 42.4467 24.0885 42.7389C24.3453 43.3258 24.6748 44.1249 25.0526 45.072C25.8087 46.9675 26.769 49.4825 27.7477 52.1374C28.769 54.8426 29.6357 57.3697 30.2195 59.2797C30.5108 60.2327 30.7362 61.0469 30.8748 61.659C30.9434 61.9621 30.9961 62.2389 31.0221 62.4687C31.035 62.582 31.0444 62.7098 31.0398 62.8367C31.0367 62.9243 31.0254 63.1758 30.8824 63.4245Z" fill="url(#paint0_linear_151_10)"/>
<path d="M21.8688 42.7256C21.8688 42.7257 21.8707 42.7289 21.8744 42.7343M8.27612 79.4963C8.51134 78.911 8.73012 78.2265 8.87487 77.6239C9.20452 76.1656 9.93126 74.0599 10.5885 72.6883L10.5916 72.6819L10.5948 72.6754L11.6891 70.4734L11.9649 69.9185H12.5846H22.668C23.1709 69.9185 23.6514 69.9178 24.1104 69.9171C26.1819 69.9142 27.8172 69.9119 29.1075 69.9758C30.6686 70.0531 31.8886 70.2302 32.8527 70.7203C33.8789 71.2419 34.496 72.0522 35.0005 73.0993C35.3869 73.9012 35.7461 74.9304 36.1776 76.1671C36.2829 76.4689 36.3926 76.7832 36.508 77.1095L36.5095 77.1138L37.8435 80.9412L41.6801 81.0102L41.688 81.0104L41.6958 81.0106C42.8554 81.0497 43.9209 81.0697 44.7098 81.0711C44.6258 80.8456 44.5311 80.5919 44.4262 80.3112C43.9406 79.0128 43.2375 77.1432 42.3681 74.8397C40.6293 70.2328 38.2261 63.8929 35.5688 56.9208L35.568 56.9186L26.2609 32.3233L22.8424 32.1175L22.8353 32.1171L22.8281 32.1165C21.7875 32.039 20.8112 32.0594 20.0835 32.1344C19.7228 32.1716 19.4473 32.2197 19.2652 32.2671C19.0513 32.7037 18.677 33.5681 18.1611 34.8299C17.5405 36.3478 16.7455 38.3631 15.8378 40.7099C14.0228 45.4022 11.7627 51.4045 9.55561 57.3704C7.34848 63.3364 5.19595 69.2619 3.59585 73.8008C2.7955 76.0712 2.13517 77.9895 1.6757 79.3909C1.44562 80.0926 1.26851 80.6568 1.14987 81.0675C1.13998 81.1017 1.13058 81.1346 1.12165 81.1661C1.18641 81.1794 1.2595 81.1927 1.34142 81.2055C1.97051 81.3038 2.86632 81.3357 3.8283 81.2963C4.78505 81.2572 5.75471 81.1497 6.52398 80.9901C6.91023 80.91 7.22056 80.8219 7.44393 80.7341C7.61417 80.6671 7.68012 80.621 7.69055 80.6152L7.69345 80.6117L7.71991 80.5841C7.74221 80.5608 7.81818 80.4625 7.93374 80.2464C8.04132 80.0452 8.15825 79.7895 8.27612 79.4963ZM0.719468 81.0415C0.718846 81.0416 0.724382 81.0452 0.737942 81.0521C0.72687 81.0448 0.72009 81.0414 0.719468 81.0415ZM30.8824 63.4245L30.876 63.4357L30.8693 63.4467C30.7389 63.6605 30.5653 63.7874 30.4568 63.8552C30.339 63.9289 30.2186 63.9814 30.116 64.0196C29.9112 64.0961 29.6752 64.1533 29.4382 64.1989C28.958 64.2913 28.3359 64.3616 27.6408 64.415C26.2425 64.5223 24.4423 64.5683 22.6524 64.5581C20.8625 64.5478 19.0578 64.4809 17.6504 64.358C16.9504 64.2969 16.3239 64.2198 15.8385 64.123C15.5985 64.0751 15.3624 64.0166 15.1579 63.9408C15.0555 63.9029 14.9383 63.8524 14.8238 63.7838C14.7184 63.7206 14.5542 63.6062 14.4219 63.4163L14.4002 63.3852L14.3809 63.3525C14.2385 63.1111 14.2156 62.8648 14.2085 62.7526C14.1995 62.6104 14.2069 62.4657 14.2193 62.3341C14.2444 62.0688 14.3009 61.7507 14.3755 61.4054C14.5259 60.7088 14.7728 59.797 15.0814 58.7604C15.7002 56.6816 16.5884 54.0305 17.5155 51.4458C18.4424 48.862 19.4146 46.3262 20.2034 44.48C20.5953 43.5628 20.9535 42.788 21.2458 42.2585C21.3848 42.0066 21.5422 41.7481 21.7095 41.557C21.7795 41.4771 21.941 41.3015 22.1879 41.1953C22.3272 41.1354 22.5446 41.0759 22.8041 41.1218C23.0662 41.168 23.2685 41.3035 23.406 41.4545C23.506 41.5633 23.5762 41.6821 23.6085 41.7376C23.6554 41.818 23.7034 41.9097 23.7509 42.0052C23.8466 42.1974 23.9606 42.4467 24.0885 42.7389C24.3453 43.3258 24.6748 44.1249 25.0526 45.072C25.8087 46.9675 26.769 49.4825 27.7477 52.1374C28.769 54.8426 29.6357 57.3697 30.2195 59.2797C30.5108 60.2327 30.7362 61.0469 30.8748 61.659C30.9434 61.9621 30.9961 62.2389 31.0221 62.4687C31.035 62.582 31.0444 62.7098 31.0398 62.8367C31.0367 62.9243 31.0254 63.1758 30.8824 63.4245Z" stroke="black" stroke-width="2"/>
<path d="M57.469 42.1619L57.9648 32.0376H54.9503H51.8076V56.7277V81.3362H54.8722H57.8258L57.3901 67.8516L57.39 67.8489C57.1549 59.9155 57.2331 48.312 57.4684 42.1725L57.469 42.1619Z" fill="url(#paint1_linear_151_10)" stroke="black" stroke-width="2"/>
<path d="M127.628 56.6461V81.173H130.536H133.445V56.6461V32.1191H130.536H127.628V56.6461Z" fill="url(#paint2_linear_151_10)" stroke="black" stroke-width="2"/>
<path d="M118.593 78.7478V76.3442L115.548 76.6439L115.538 76.6449L115.528 76.6456C113.953 76.7689 112.745 76.78 111.804 76.6004C110.808 76.4103 110.075 75.9994 109.513 75.2976C109.247 74.97 109.047 74.5487 108.889 74.1186C108.725 73.6735 108.583 73.1539 108.459 72.5863C108.212 71.4504 108.027 70.0572 107.907 68.5509C107.668 65.5401 107.687 61.9872 108.048 58.9758V58.9739L108.595 54.2477L108.71 53.2464L109.711 53.3702L114.314 53.94L117.811 54.3112V51.3451V48.2673H114.122H109.432H108.432V47.2673V41.1506V36.034H107.165C106.481 36.034 105.728 35.9677 105.065 35.8704C104.423 35.7761 103.783 35.6411 103.361 35.4759C103.281 35.4446 103.159 35.4357 103.03 35.4736C102.957 35.495 102.909 35.5227 102.881 35.5434C102.869 35.5987 102.845 35.7132 102.822 35.9108C102.787 36.221 102.766 36.6323 102.762 37.1232C102.752 38.0998 102.808 39.326 102.923 40.5608C103.232 43.3868 103.286 45.4445 102.852 46.8148C102.621 47.5451 102.229 48.1564 101.606 48.5632C101.001 48.9588 100.295 49.0829 99.5828 49.0829C99.1893 49.0829 98.9995 49.1109 98.9041 49.1416C98.8972 49.1438 98.8916 49.1459 98.8871 49.1476C98.8601 49.1979 98.8032 49.3459 98.7629 49.7073C98.7219 50.0765 98.7068 50.5746 98.7068 51.2635C98.7068 51.9957 98.7221 52.5152 98.7671 52.8991C98.8129 53.2893 98.8798 53.4385 98.9136 53.4919L98.9154 53.495C98.9338 53.5265 99.0063 53.651 100.015 53.7776L102.121 54.0218L102.977 54.121L103.005 54.9825L103.396 66.969V66.9701C103.513 70.3351 103.63 72.9184 103.814 74.924C103.999 76.9413 104.247 78.3 104.596 79.2487C104.931 80.1601 105.344 80.6525 105.872 80.9916C106.443 81.3587 107.23 81.6008 108.437 81.8415C109.806 82.0631 112.891 82.0688 115.156 81.7536L115.169 81.7519L115.181 81.7505L118.593 81.3621V78.7478Z" fill="url(#paint3_linear_151_10)" stroke="black" stroke-width="2"/>
<path d="M75.7699 48.6154L75.7657 48.6169C73.0691 49.5795 70.3899 52.0035 68.3713 55.0841C66.3572 58.1576 65.0956 61.7417 65.0956 64.8834C65.0956 72.0571 68.7984 77.5018 73.9523 80.1523C79.1082 82.8038 85.7907 82.6958 91.8276 78.5744L91.8344 78.5698L91.8412 78.5653L94.0915 77.0824L93.2042 75.173L92.3948 73.4311L89.7335 74.8195C84.9554 77.3952 78.623 77.5424 74.659 75.0249L74.6488 75.0184C73.3251 74.1552 72.2352 73.1505 71.5814 72.1811C71.2569 71.7 70.9988 71.1672 70.919 70.6209C70.8348 70.0451 70.9505 69.4164 71.4247 68.9217C71.5415 68.7998 71.6634 68.7323 71.7143 68.7054C71.779 68.6711 71.8403 68.6457 71.8875 68.6277C71.9823 68.5916 72.0856 68.5608 72.1832 68.5345C72.3821 68.4809 72.639 68.4244 72.9355 68.3661C73.5331 68.2485 74.3558 68.1109 75.3386 67.9622C77.3076 67.6643 79.958 67.3162 82.8198 66.989L82.8325 66.9876C85.6226 66.7046 88.2928 66.3207 90.3257 65.9488C91.3439 65.7625 92.1892 65.5816 92.8042 65.4208C93.1133 65.3401 93.348 65.2686 93.5109 65.209C93.5798 65.1839 93.6229 65.1653 93.6467 65.1546C93.7888 65.0062 93.9684 64.6933 94.1019 64.132C94.2427 63.5402 94.3064 62.7785 94.2745 61.9023C94.2106 60.1493 93.7688 58.0717 92.961 56.2329L92.9581 56.2261L92.9552 56.2193C91.3446 52.4001 87.8965 49.2812 84.2988 48.2285C82.4586 47.7087 81.2537 47.4989 80.0772 47.5527C78.8943 47.6067 77.6618 47.9306 75.7699 48.6154ZM86.1071 63.2331L86.0988 63.2356L86.0903 63.2379C84.5048 63.6732 81.3913 64.0656 78.577 64.2899C77.1559 64.4031 75.7788 64.4761 74.6695 64.4892C74.116 64.4957 73.6159 64.4876 73.204 64.46C72.8344 64.4352 72.4156 64.3892 72.1003 64.2671C71.2922 63.9588 70.8494 63.2874 70.6886 62.554C70.5359 61.8574 70.6215 61.0742 70.8309 60.3153C71.2527 58.7867 72.265 57.0363 73.6871 55.5511C75.3707 53.7515 77.431 52.7799 79.5939 52.7208C81.7523 52.6619 83.9047 53.5141 85.7809 55.16C87.342 56.5249 88.3279 58.1438 88.4906 59.659C88.5735 60.4303 88.4427 61.2037 88.0199 61.8645C87.5934 62.531 86.9273 62.9925 86.1071 63.2331Z" fill="url(#paint4_linear_151_10)" stroke="black" stroke-width="2"/>
<path d="M182.075 48.6154L182.071 48.6169C179.374 49.5795 176.695 52.0035 174.676 55.0841C172.662 58.1576 171.401 61.7417 171.401 64.8834C171.401 72.0571 175.103 77.5018 180.257 80.1523C185.413 82.8038 192.096 82.6958 198.133 78.5744L198.139 78.5698L198.146 78.5653L200.396 77.0824L199.509 75.173L198.7 73.4311L196.038 74.8195C191.26 77.3952 184.928 77.5424 180.964 75.0249L180.954 75.0184C179.63 74.1552 178.54 73.1505 177.886 72.1811C177.562 71.7 177.304 71.1672 177.224 70.6209C177.14 70.0451 177.255 69.4164 177.73 68.9217C177.846 68.7998 177.968 68.7323 178.019 68.7054C178.084 68.6711 178.145 68.6457 178.192 68.6277C178.287 68.5916 178.39 68.5608 178.488 68.5345C178.687 68.4809 178.944 68.4244 179.24 68.3661C179.838 68.2485 180.661 68.1109 181.644 67.9622C183.612 67.6643 186.263 67.3162 189.125 66.989L189.137 66.9876C191.928 66.7046 194.598 66.3207 196.631 65.9488C197.649 65.7625 198.494 65.5816 199.109 65.4208C199.418 65.3401 199.653 65.2686 199.816 65.209C199.885 65.1839 199.928 65.1653 199.952 65.1546C200.094 65.0062 200.273 64.6933 200.407 64.132C200.548 63.5402 200.611 62.7785 200.579 61.9023C200.515 60.1493 200.074 58.0717 199.266 56.2329L199.263 56.2261L199.26 56.2193C197.65 52.4001 194.201 49.2812 190.604 48.2285C188.764 47.7087 187.559 47.4989 186.382 47.5527C185.199 47.6067 183.967 47.9306 182.075 48.6154ZM192.412 63.2331L192.404 63.2356L192.395 63.2379C190.81 63.6732 187.696 64.0656 184.882 64.2899C183.461 64.4031 182.084 64.4761 180.974 64.4892C180.421 64.4957 179.921 64.4876 179.509 64.46C179.139 64.4352 178.721 64.3892 178.405 64.2671C177.597 63.9588 177.154 63.2874 176.994 62.554C176.841 61.8574 176.926 61.0742 177.136 60.3153C177.558 58.7867 178.57 57.0363 179.992 55.5511C181.676 53.7515 183.736 52.7799 185.899 52.7208C188.057 52.6619 190.21 53.5141 192.086 55.16C193.647 56.5249 194.633 58.1438 194.796 59.659C194.878 60.4303 194.748 61.2037 194.325 61.8645C193.898 62.531 193.232 62.9925 192.412 63.2331Z" fill="url(#paint5_linear_151_10)" stroke="black" stroke-width="2"/>
<path d="M142.856 53.4929L142.564 55.4229H149.296C151.462 55.4229 153.438 55.4845 154.881 55.5779C155.599 55.6244 156.203 55.68 156.639 55.7429C156.85 55.7734 157.058 55.8107 157.23 55.86C157.308 55.8825 157.437 55.9235 157.566 55.997C157.63 56.0333 157.743 56.1045 157.85 56.2251C157.961 56.3507 158.112 56.5848 158.112 56.9123C158.112 57.1212 158.047 57.2825 158.029 57.3281C158 57.3994 157.968 57.462 157.943 57.5075C157.891 57.6002 157.828 57.6981 157.763 57.7919C157.632 57.9834 157.449 58.2277 157.228 58.5112C156.782 59.0819 156.145 59.858 155.365 60.7799C153.803 62.6246 151.647 65.0788 149.257 67.6945C145.292 72.1599 143.199 74.5659 142.083 76.2193C141.537 77.0286 141.26 77.6095 141.109 78.1224C140.959 78.6328 140.916 79.135 140.916 79.8294V82.0855L153.12 82.0101L165.514 81.9336L165.824 80.3689C165.847 80.252 165.87 80.1395 165.891 80.0312C166.1 78.984 166.231 78.3271 166.232 77.8505C166.233 77.6124 166.198 77.5172 166.183 77.4873C166.183 77.4869 166.182 77.4864 166.182 77.4859C166.177 77.4747 166.161 77.4414 166.062 77.389C165.77 77.2341 165.141 77.1033 163.793 77.0438C162.668 76.994 161.187 76.9949 159.223 76.996C158.922 76.9961 158.609 76.9963 158.285 76.9963C155.804 76.9963 153.531 76.9142 151.869 76.7896C151.042 76.7276 150.345 76.6536 149.843 76.5698C149.599 76.529 149.36 76.4795 149.165 76.4145C149.074 76.3843 148.932 76.3316 148.794 76.2411C148.715 76.189 148.296 75.9078 148.296 75.3439C148.296 75.0965 148.372 74.8867 148.424 74.7632C148.483 74.6227 148.558 74.4857 148.635 74.3601C148.789 74.1083 148.996 73.8271 149.228 73.5372C149.694 72.9535 150.323 72.2562 150.997 71.5527L151.008 71.5419L151.018 71.5312C152.317 70.2559 156.204 66.0401 159.558 62.1329L159.56 62.1316C162.353 58.8883 163.83 57.0853 164.625 55.7406C165.361 54.4955 165.492 53.6843 165.492 52.3451V50.0829H158.363C153.895 50.0829 148.609 49.8383 146.592 49.5858L146.581 49.5844L146.569 49.5827C145.203 49.3791 144.395 49.3414 143.93 49.4097C143.799 49.429 143.724 49.4531 143.686 49.4686C143.525 50.1546 143.156 51.9267 142.856 53.4929Z" fill="url(#paint6_linear_151_10)" stroke="black" stroke-width="2"/>
<g filter="url(#filter0_ii_151_10)">
<circle cx="130.5" cy="16.5" r="12.5" fill="url(#paint7_linear_151_10)"/>
<path d="M130.5 26.75L130.62 27.4211L131.143 26.984L130.803 27.575L131.485 27.5764L130.845 27.8108L131.366 28.25L130.725 28.0181L130.842 28.6897L130.5 28.1L130.158 28.6897L130.275 28.0181L129.634 28.25L130.155 27.8108L129.515 27.5764L130.197 27.575L129.857 26.984L130.38 27.4211L130.5 26.75Z" fill="white"/>
<path d="M130.5 4.25L130.62 4.92111L131.143 4.48396L130.803 5.075L131.485 5.07635L130.845 5.31078L131.366 5.75L130.725 5.51812L130.842 6.18969L130.5 5.6L130.158 6.18969L130.275 5.51812L129.634 5.75L130.155 5.31078L129.515 5.07635L130.197 5.075L129.857 4.48396L130.38 4.92111L130.5 4.25Z" fill="#DC0A16"/>
</g>
<circle cx="130.5" cy="16.5" r="9" fill="url(#paint8_linear_151_10)" stroke="black" stroke-width="2"/>
</g>
<defs>
<filter id="filter0_ii_151_10" x="118" y="0" width="25" height="31" filterUnits="userSpaceOnUse" color-interpolation-filters="sRGB">
<feFlood flood-opacity="0" result="BackgroundImageFix"/>
<feBlend mode="normal" in="SourceGraphic" in2="BackgroundImageFix" result="shape"/>
<feColorMatrix in="SourceAlpha" type="matrix" values="0 0 0 0 0 0 0 0 0 0 0 0 0 0 0 0 0 0 127 0" result="hardAlpha"/>
<feOffset dy="4"/>
<feGaussianBlur stdDeviation="1"/>
<feComposite in2="hardAlpha" operator="arithmetic" k2="-1" k3="1"/>
<feColorMatrix type="matrix" values="0 0 0 0 0.862745 0 0 0 0 0.0392157 0 0 0 0 0.0862745 0 0 0 0.15 0"/>
<feBlend mode="normal" in2="shape" result="effect1_innerShadow_151_10"/>
<feColorMatrix in="SourceAlpha" type="matrix" values="0 0 0 0 0 0 0 0 0 0 0 0 0 0 0 0 0 0 127 0" result="hardAlpha"/>
<feOffset dy="-4"/>
<feGaussianBlur stdDeviation="2"/>
<feComposite in2="hardAlpha" operator="arithmetic" k2="-1" k3="1"/>
<feColorMatrix type="matrix" values="0 0 0 0 1 0 0 0 0 1 0 0 0 0 1 0 0 0 0.1 0"/>
<feBlend mode="normal" in2="effect1_innerShadow_151_10" result="effect2_innerShadow_151_10"/>
</filter>
<linearGradient id="paint0_linear_151_10" x1="22.7146" y1="32.0674" x2="22.7146" y2="81.3127" gradientUnits="userSpaceOnUse">
<stop offset="0.239583" stop-color="white"/>
<stop offset="0.40625" stop-color="#006328"/>
<stop offset="0.453125" stop-color="#DC0A16"/>
</linearGradient>
<linearGradient id="paint1_linear_151_10" x1="54.8862" y1="32.0376" x2="54.8862" y2="81.3362" gradientUnits="userSpaceOnUse">
<stop offset="0.239583" stop-color="white"/>
<stop offset="0.40625" stop-color="#006328"/>
<stop offset="0.453125" stop-color="#DC0A16"/>
</linearGradient>
<linearGradient id="paint2_linear_151_10" x1="130.536" y1="32.1191" x2="130.536" y2="81.173" gradientUnits="userSpaceOnUse">
<stop offset="0.239583" stop-color="white"/>
<stop offset="0.40625" stop-color="#006328"/>
<stop offset="0.453125" stop-color="#DC0A16"/>
</linearGradient>
<linearGradient id="paint3_linear_151_10" x1="108.65" y1="35.4486" x2="108.65" y2="82" gradientUnits="userSpaceOnUse">
<stop offset="0.239583" stop-color="white"/>
<stop offset="0.40625" stop-color="#006328"/>
<stop offset="0.453125" stop-color="#DC0A16"/>
</linearGradient>
<linearGradient id="paint4_linear_151_10" x1="79.6891" y1="47.5446" x2="79.6891" y2="81.9429" gradientUnits="userSpaceOnUse">
<stop offset="0.239583" stop-color="white"/>
<stop offset="0.40625" stop-color="#006328"/>
<stop offset="0.453125" stop-color="#DC0A16"/>
</linearGradient>
<linearGradient id="paint5_linear_151_10" x1="185.994" y1="47.5446" x2="185.994" y2="81.9429" gradientUnits="userSpaceOnUse">
<stop offset="0.239583" stop-color="white"/>
<stop offset="0.40625" stop-color="#006328"/>
<stop offset="0.453125" stop-color="#DC0A16"/>
</linearGradient>
<linearGradient id="paint6_linear_151_10" x1="153.574" y1="49.3784" x2="153.574" y2="82.0855" gradientUnits="userSpaceOnUse">
<stop offset="0.239583" stop-color="white"/>
<stop offset="0.40625" stop-color="#006328"/>
<stop offset="0.453125" stop-color="#DC0A16"/>
</linearGradient>
<linearGradient id="paint7_linear_151_10" x1="130.5" y1="4" x2="130.5" y2="29" gradientUnits="userSpaceOnUse">
<stop offset="0.234375" stop-color="white" stop-opacity="0.9"/>
<stop offset="0.776042" stop-color="#DC0A16"/>
</linearGradient>
<linearGradient id="paint8_linear_151_10" x1="130.5" y1="6.5" x2="130.5" y2="26.5" gradientUnits="userSpaceOnUse">
<stop offset="0.059028" stop-color="#006331" stop-opacity="0.1"/>
<stop offset="0.736111" stop-color="#006328"/>
</linearGradient>
<clipPath id="clip0_151_10">
<rect width="202" height="83" fill="white"/>
</clipPath>
</defs>
</svg>
