<svg width="25" height="25" viewBox="0 0 25 25" fill="none" xmlns="http://www.w3.org/2000/svg">
<g filter="url(#filter0_ii_151_26)">
<circle cx="12.5" cy="12.5" r="12.5" fill="url(#paint0_linear_151_26)"/>
<path d="M12.5 22.75L12.6197 23.4211L13.1428 22.984L12.8031 23.575L13.4848 23.5764L12.8447 23.8108L13.366 24.25L12.725 24.0181L12.842 24.6897L12.5 24.1L12.158 24.6897L12.275 24.0181L11.634 24.25L12.1553 23.8108L11.5152 23.5764L12.1969 23.575L11.8572 22.984L12.3803 23.4211L12.5 22.75Z" fill="white"/>
<path d="M12.5 0.25L12.6197 0.921108L13.1428 0.483956L12.8031 1.075L13.4848 1.07635L12.8447 1.31078L13.366 1.75L12.725 1.51812L12.842 2.18969L12.5 1.6L12.158 2.18969L12.275 1.51812L11.634 1.75L12.1553 1.31078L11.5152 1.07635L12.1969 1.075L11.8572 0.483956L12.3803 0.921108L12.5 0.25Z" fill="#DC0A16"/>
</g>
<circle cx="12.5" cy="12.5" r="9" fill="url(#paint1_linear_151_26)" stroke="black" stroke-width="2"/>
<defs>
<filter id="filter0_ii_151_26" x="0" y="-4" width="25" height="31" filterUnits="userSpaceOnUse" color-interpolation-filters="sRGB">
<feFlood flood-opacity="0" result="BackgroundImageFix"/>
<feBlend mode="normal" in="SourceGraphic" in2="BackgroundImageFix" result="shape"/>
<feColorMatrix in="SourceAlpha" type="matrix" values="0 0 0 0 0 0 0 0 0 0 0 0 0 0 0 0 0 0 127 0" result="hardAlpha"/>
<feOffset dy="4"/>
<feGaussianBlur stdDeviation="1"/>
<feComposite in2="hardAlpha" operator="arithmetic" k2="-1" k3="1"/>
<feColorMatrix type="matrix" values="0 0 0 0 0.862745 0 0 0 0 0.0392157 0 0 0 0 0.0862745 0 0 0 0.15 0"/>
<feBlend mode="normal" in2="shape" result="effect1_innerShadow_151_26"/>
<feColorMatrix in="SourceAlpha" type="matrix" values="0 0 0 0 0 0 0 0 0 0 0 0 0 0 0 0 0 0 127 0" result="hardAlpha"/>
<feOffset dy="-4"/>
<feGaussianBlur stdDeviation="2"/>
<feComposite in2="hardAlpha" operator="arithmetic" k2="-1" k3="1"/>
<feColorMatrix type="matrix" values="0 0 0 0 1 0 0 0 0 1 0 0 0 0 1 0 0 0 0.1 0"/>
<feBlend mode="normal" in2="effect1_innerShadow_151_26" result="effect2_innerShadow_151_26"/>
</filter>
<linearGradient id="paint0_linear_151_26" x1="12.5" y1="0" x2="12.5" y2="25" gradientUnits="userSpaceOnUse">
<stop offset="0.234375" stop-color="white" stop-opacity="0.9"/>
<stop offset="0.776042" stop-color="#DC0A16"/>
</linearGradient>
<linearGradient id="paint1_linear_151_26" x1="12.5" y1="2.5" x2="12.5" y2="22.5" gradientUnits="userSpaceOnUse">
<stop offset="0.059028" stop-color="#006331" stop-opacity="0.1"/>
<stop offset="0.736111" stop-color="#006328"/>
</linearGradient>
</defs>
</svg>
